<?xml version="1.0" encoding="UTF-8" standalone="no"?>
<svg xmlns:svg="http://www.w3.org/2000/svg"
     xmlns="http://www.w3.org/2000/svg" version="1.1"
     width="360.0" height="185.0">
    <!-- Created with parliamentarch (https://github.com/Gouvernathor/parliamentarch/) -->
    <text x="180.0" y="175.0"
          style="font-size:36px;font-weight:bold;text-align:center;text-anchor:middle;font-family:sans-serif">150</text>
    <g style="fill:#bccc1e"
       id="0---------------">
        <title>Партия Поповой</title>
    </g>
    <g style="fill:#6fef3d"
       id="1------">
        <title>Груша</title>
    </g>
    <g style="fill:#00f5f9"
       id="2------------------------------------------------">
        <title>Либерально-демократическая партия СФСР Юльсанна</title>
    </g>
    <g style="fill:#a41414"
       id="3---------">
        <title>КП СФСРЮ</title>
        <circle cx="11.87" cy="173.27" r="5.38"/>
        <circle cx="25.34" cy="173.27" r="5.38"/>
        <circle cx="38.81" cy="173.27" r="5.38"/>
        <circle cx="52.29" cy="173.27" r="5.38"/>
        <circle cx="65.78" cy="173.27" r="5.38"/>
        <circle cx="13.10" cy="158.61" r="5.38"/>
        <circle cx="26.68" cy="158.56" r="5.38"/>
        <circle cx="40.30" cy="158.50" r="5.38"/>
        <circle cx="53.95" cy="158.44" r="5.38"/>
        <circle cx="67.64" cy="158.35" r="5.38"/>
        <circle cx="15.60" cy="144.11" r="5.38"/>
        <circle cx="29.43" cy="144.04" r="5.38"/>
        <circle cx="43.32" cy="143.97" r="5.38"/>
        <circle cx="57.32" cy="143.90" r="5.38"/>
        <circle cx="19.37" cy="129.88" r="5.38"/>
        <circle cx="71.45" cy="143.81" r="5.38"/>
        <circle cx="33.54" cy="129.86" r="5.38"/>
        <circle cx="47.85" cy="129.84" r="5.38"/>
        <circle cx="24.36" cy="116.04" r="5.38"/>
        <circle cx="62.36" cy="129.85" r="5.38"/>
        <circle cx="38.98" cy="116.12" r="5.38"/>
        <circle cx="77.13" cy="129.89" r="5.38"/>
        <circle cx="53.84" cy="116.26" r="5.38"/>
        <circle cx="30.54" cy="102.69" r="5.38"/>
        <circle cx="69.01" cy="116.48" r="5.38"/>
        <circle cx="45.71" cy="102.98" r="5.38"/>
        <circle cx="37.87" cy="89.93" r="5.38"/>
        <circle cx="61.22" cy="103.38" r="5.38"/>
        <circle cx="84.59" cy="116.84" r="5.38"/>
        <circle cx="53.67" cy="90.53" r="5.38"/>
        <circle cx="77.16" cy="103.98" r="5.38"/>
        <circle cx="46.28" cy="77.85" r="5.38"/>
        <circle cx="69.91" cy="91.35" r="5.38"/>
        <circle cx="62.77" cy="78.89" r="5.38"/>
        <circle cx="93.69" cy="104.88" r="5.38"/>
        <circle cx="55.72" cy="66.56" r="5.38"/>
        <circle cx="86.72" cy="92.52" r="5.38"/>
        <circle cx="79.81" cy="80.30" r="5.38"/>
        <circle cx="72.94" cy="68.18" r="5.38"/>
        <circle cx="66.10" cy="56.14" r="5.38"/>
        <circle cx="104.28" cy="94.21" r="5.38"/>
        <circle cx="97.55" cy="82.24" r="5.38"/>
        <circle cx="90.82" cy="70.34" r="5.38"/>
        <circle cx="84.09" cy="58.49" r="5.38"/>
        <circle cx="77.36" cy="46.66" r="5.38"/>
        <circle cx="116.18" cy="85.02" r="5.38"/>
        <circle cx="109.50" cy="73.30" r="5.38"/>
        <circle cx="102.81" cy="61.60" r="5.38"/>
        <circle cx="96.10" cy="49.90" r="5.38"/>
        <circle cx="89.40" cy="38.20" r="5.38"/>
        <circle cx="102.13" cy="30.83" r="5.38"/>
        <circle cx="108.89" cy="42.49" r="5.38"/>
        <circle cx="115.65" cy="54.15" r="5.38"/>
        <circle cx="122.41" cy="65.82" r="5.38"/>
        <circle cx="129.19" cy="77.48" r="5.38"/>
        <circle cx="115.46" cy="24.60" r="5.38"/>
        <circle cx="122.32" cy="36.34" r="5.38"/>
        <circle cx="129.20" cy="48.10" r="5.38"/>
        <circle cx="136.11" cy="59.88" r="5.38"/>
        <circle cx="143.06" cy="71.70" r="5.38"/>
        <circle cx="129.28" cy="19.56" r="5.38"/>
        <circle cx="136.27" cy="31.50" r="5.38"/>
        <circle cx="143.31" cy="43.50" r="5.38"/>
        <circle cx="150.40" cy="55.59" r="5.38"/>
        <circle cx="143.49" cy="15.74" r="5.38"/>
        <circle cx="157.58" cy="67.79" r="5.38"/>
        <circle cx="150.62" cy="28.00" r="5.38"/>
        <circle cx="157.82" cy="40.40" r="5.38"/>
        <circle cx="157.98" cy="13.18" r="5.38"/>
        <circle cx="165.10" cy="52.99" r="5.38"/>
        <circle cx="165.25" cy="25.90" r="5.38"/>
        <circle cx="172.48" cy="65.82" r="5.38"/>
        <circle cx="172.58" cy="38.85" r="5.38"/>
        <circle cx="172.64" cy="11.89" r="5.38"/>
        <circle cx="180.00" cy="52.12" r="5.38"/>
        <circle cx="180.00" cy="25.19" r="5.38"/>
        <circle cx="187.36" cy="11.89" r="5.38"/>
        <circle cx="187.42" cy="38.85" r="5.38"/>
        <circle cx="187.52" cy="65.82" r="5.38"/>
        <circle cx="194.75" cy="25.90" r="5.38"/>
        <circle cx="194.90" cy="52.99" r="5.38"/>
        <circle cx="202.02" cy="13.18" r="5.38"/>
        <circle cx="202.18" cy="40.40" r="5.38"/>
        <circle cx="209.38" cy="28.00" r="5.38"/>
        <circle cx="202.42" cy="67.79" r="5.38"/>
        <circle cx="216.51" cy="15.74" r="5.38"/>
        <circle cx="209.60" cy="55.59" r="5.38"/>
        <circle cx="216.69" cy="43.50" r="5.38"/>
        <circle cx="223.73" cy="31.50" r="5.38"/>
        <circle cx="230.72" cy="19.56" r="5.38"/>
        <circle cx="216.94" cy="71.70" r="5.38"/>
        <circle cx="223.89" cy="59.88" r="5.38"/>
        <circle cx="230.80" cy="48.10" r="5.38"/>
        <circle cx="237.68" cy="36.34" r="5.38"/>
        <circle cx="244.54" cy="24.60" r="5.38"/>
        <circle cx="230.81" cy="77.48" r="5.38"/>
        <circle cx="237.59" cy="65.82" r="5.38"/>
        <circle cx="244.35" cy="54.15" r="5.38"/>
        <circle cx="251.11" cy="42.49" r="5.38"/>
        <circle cx="257.87" cy="30.83" r="5.38"/>
        <circle cx="270.60" cy="38.20" r="5.38"/>
        <circle cx="263.90" cy="49.90" r="5.38"/>
        <circle cx="257.19" cy="61.60" r="5.38"/>
        <circle cx="250.50" cy="73.30" r="5.38"/>
        <circle cx="243.82" cy="85.02" r="5.38"/>
        <circle cx="282.64" cy="46.66" r="5.38"/>
        <circle cx="275.91" cy="58.49" r="5.38"/>
        <circle cx="269.18" cy="70.34" r="5.38"/>
        <circle cx="262.45" cy="82.24" r="5.38"/>
        <circle cx="255.72" cy="94.21" r="5.38"/>
        <circle cx="293.90" cy="56.14" r="5.38"/>
        <circle cx="287.06" cy="68.18" r="5.38"/>
        <circle cx="280.19" cy="80.30" r="5.38"/>
        <circle cx="273.28" cy="92.52" r="5.38"/>
        <circle cx="304.28" cy="66.56" r="5.38"/>
        <circle cx="266.31" cy="104.88" r="5.38"/>
        <circle cx="297.23" cy="78.89" r="5.38"/>
        <circle cx="290.09" cy="91.35" r="5.38"/>
        <circle cx="313.72" cy="77.85" r="5.38"/>
        <circle cx="282.84" cy="103.98" r="5.38"/>
        <circle cx="306.33" cy="90.53" r="5.38"/>
        <circle cx="275.41" cy="116.84" r="5.38"/>
        <circle cx="298.78" cy="103.38" r="5.38"/>
        <circle cx="322.13" cy="89.93" r="5.38"/>
        <circle cx="314.29" cy="102.98" r="5.38"/>
        <circle cx="290.99" cy="116.48" r="5.38"/>
        <circle cx="329.46" cy="102.69" r="5.38"/>
        <circle cx="306.16" cy="116.26" r="5.38"/>
        <circle cx="282.87" cy="129.89" r="5.38"/>
        <circle cx="321.02" cy="116.12" r="5.38"/>
        <circle cx="297.64" cy="129.85" r="5.38"/>
        <circle cx="335.64" cy="116.04" r="5.38"/>
        <circle cx="312.15" cy="129.84" r="5.38"/>
        <circle cx="326.46" cy="129.86" r="5.38"/>
        <circle cx="288.55" cy="143.81" r="5.38"/>
        <circle cx="340.63" cy="129.88" r="5.38"/>
        <circle cx="302.68" cy="143.90" r="5.38"/>
        <circle cx="316.68" cy="143.97" r="5.38"/>
        <circle cx="330.57" cy="144.04" r="5.38"/>
        <circle cx="344.40" cy="144.11" r="5.38"/>
        <circle cx="292.36" cy="158.35" r="5.38"/>
        <circle cx="306.05" cy="158.44" r="5.38"/>
        <circle cx="319.70" cy="158.50" r="5.38"/>
        <circle cx="333.32" cy="158.56" r="5.38"/>
        <circle cx="346.90" cy="158.61" r="5.38"/>
        <circle cx="294.22" cy="173.27" r="5.38"/>
        <circle cx="307.71" cy="173.27" r="5.38"/>
        <circle cx="321.19" cy="173.27" r="5.38"/>
        <circle cx="334.66" cy="173.27" r="5.38"/>
        <circle cx="348.13" cy="173.27" r="5.38"/>
    </g>
</svg>

