<?xml version="1.0" encoding="UTF-8" standalone="no"?>
<svg xmlns:svg="http://www.w3.org/2000/svg"
     xmlns="http://www.w3.org/2000/svg" version="1.1"
     width="360.0" height="185.0">
    <!-- Created with parliamentarch (https://github.com/Gouvernathor/parliamentarch/) -->
    <text x="180.0" y="175.0"
          style="font-size:36px;font-weight:bold;text-align:center;text-anchor:middle;font-family:sans-serif">40</text>
    <g style="fill:#6fef3d"
       id="0------">
        <title>Груша</title>
    </g>
    <g style="fill:#00f5f9"
       id="1------------------------------------------------">
        <title>Либерально-демократическая партия СФСР Юльсанна</title>
        <circle cx="17.98" cy="167.50" r="10.00"/>
        <circle cx="43.07" cy="167.50" r="10.00"/>
        <circle cx="68.20" cy="167.50" r="10.00"/>
        <circle cx="23.66" cy="135.69" r="10.00"/>
        <circle cx="50.26" cy="134.45" r="10.00"/>
        <circle cx="76.52" cy="135.86" r="10.00"/>
        <circle cx="35.52" cy="105.63" r="10.00"/>
        <circle cx="65.31" cy="104.15" r="10.00"/>
        <circle cx="53.09" cy="78.52" r="10.00"/>
        <circle cx="93.60" cy="107.95" r="10.00"/>
        <circle cx="87.30" cy="78.45" r="10.00"/>
    </g>
    <g style="fill:#a41414"
       id="2---------">
        <title>КП СФСРЮ</title>
        <circle cx="75.67" cy="55.41" r="10.00"/>
        <circle cx="117.99" cy="86.13" r="10.00"/>
        <circle cx="102.39" cy="37.23" r="10.00"/>
        <circle cx="114.89" cy="58.89" r="10.00"/>
        <circle cx="132.17" cy="24.70" r="10.00"/>
        <circle cx="147.63" cy="72.26" r="10.00"/>
        <circle cx="146.43" cy="46.66" r="10.00"/>
        <circle cx="163.84" cy="18.31" r="10.00"/>
        <circle cx="180.00" cy="67.50" r="10.00"/>
        <circle cx="180.00" cy="42.50" r="10.00"/>
        <circle cx="196.16" cy="18.31" r="10.00"/>
        <circle cx="213.57" cy="46.66" r="10.00"/>
        <circle cx="212.37" cy="72.26" r="10.00"/>
        <circle cx="227.83" cy="24.70" r="10.00"/>
        <circle cx="245.11" cy="58.89" r="10.00"/>
        <circle cx="257.61" cy="37.23" r="10.00"/>
        <circle cx="242.01" cy="86.13" r="10.00"/>
        <circle cx="284.33" cy="55.41" r="10.00"/>
        <circle cx="272.70" cy="78.45" r="10.00"/>
        <circle cx="266.40" cy="107.95" r="10.00"/>
        <circle cx="306.91" cy="78.52" r="10.00"/>
        <circle cx="294.69" cy="104.15" r="10.00"/>
        <circle cx="324.48" cy="105.63" r="10.00"/>
        <circle cx="283.48" cy="135.86" r="10.00"/>
        <circle cx="309.74" cy="134.45" r="10.00"/>
        <circle cx="336.34" cy="135.69" r="10.00"/>
        <circle cx="291.80" cy="167.50" r="10.00"/>
        <circle cx="316.93" cy="167.50" r="10.00"/>
        <circle cx="342.02" cy="167.50" r="10.00"/>
    </g>
</svg>

