<?xml version="1.0" encoding="UTF-8" standalone="no"?>
<svg xmlns:svg="http://www.w3.org/2000/svg"
     xmlns="http://www.w3.org/2000/svg" version="1.1"
     width="360.0" height="256.3">
  <!-- Created with the Wikimedia westminster parliament diagram creator (http://parliamentdiagram.toolforge.org/westminsterinputform) -->
  <g id="diagram">
    <g id="headbench">
      <g style="fill:#B91717" id="Party 8">
        <rect x="5.6481" y="148.2407" rx="0.00" ry="0.00" width="11.67" height="11.67"/>
      </g>
    </g>
    <g id="leftbench">
      <g style="fill:#B91717" id="Party 1">
        <rect x="18.6111" y="128.7963" rx="0.00" ry="0.00" width="11.67" height="11.67"/>
        <rect x="31.5741" y="128.7963" rx="0.00" ry="0.00" width="11.67" height="11.67"/>
        <rect x="44.5370" y="128.7963" rx="0.00" ry="0.00" width="11.67" height="11.67"/>
        <rect x="57.5000" y="128.7963" rx="0.00" ry="0.00" width="11.67" height="11.67"/>
        <rect x="70.4630" y="128.7963" rx="0.00" ry="0.00" width="11.67" height="11.67"/>
        <rect x="83.4259" y="128.7963" rx="0.00" ry="0.00" width="11.67" height="11.67"/>
        <rect x="96.3889" y="128.7963" rx="0.00" ry="0.00" width="11.67" height="11.67"/>
        <rect x="109.3519" y="128.7963" rx="0.00" ry="0.00" width="11.67" height="11.67"/>
        <rect x="122.3148" y="128.7963" rx="0.00" ry="0.00" width="11.67" height="11.67"/>
        <rect x="135.2778" y="128.7963" rx="0.00" ry="0.00" width="11.67" height="11.67"/>
        <rect x="148.2407" y="128.7963" rx="0.00" ry="0.00" width="11.67" height="11.67"/>
        <rect x="161.2037" y="128.7963" rx="0.00" ry="0.00" width="11.67" height="11.67"/>
        <rect x="174.1667" y="128.7963" rx="0.00" ry="0.00" width="11.67" height="11.67"/>
        <rect x="187.1296" y="128.7963" rx="0.00" ry="0.00" width="11.67" height="11.67"/>
        <rect x="200.0926" y="128.7963" rx="0.00" ry="0.00" width="11.67" height="11.67"/>
        <rect x="213.0556" y="128.7963" rx="0.00" ry="0.00" width="11.67" height="11.67"/>
        <rect x="226.0185" y="128.7963" rx="0.00" ry="0.00" width="11.67" height="11.67"/>
        <rect x="238.9815" y="128.7963" rx="0.00" ry="0.00" width="11.67" height="11.67"/>
        <rect x="251.9444" y="128.7963" rx="0.00" ry="0.00" width="11.67" height="11.67"/>
        <rect x="264.9074" y="128.7963" rx="0.00" ry="0.00" width="11.67" height="11.67"/>
        <rect x="18.6111" y="115.8333" rx="0.00" ry="0.00" width="11.67" height="11.67"/>
        <rect x="31.5741" y="115.8333" rx="0.00" ry="0.00" width="11.67" height="11.67"/>
        <rect x="44.5370" y="115.8333" rx="0.00" ry="0.00" width="11.67" height="11.67"/>
        <rect x="57.5000" y="115.8333" rx="0.00" ry="0.00" width="11.67" height="11.67"/>
        <rect x="70.4630" y="115.8333" rx="0.00" ry="0.00" width="11.67" height="11.67"/>
        <rect x="83.4259" y="115.8333" rx="0.00" ry="0.00" width="11.67" height="11.67"/>
        <rect x="96.3889" y="115.8333" rx="0.00" ry="0.00" width="11.67" height="11.67"/>
        <rect x="109.3519" y="115.8333" rx="0.00" ry="0.00" width="11.67" height="11.67"/>
        <rect x="122.3148" y="115.8333" rx="0.00" ry="0.00" width="11.67" height="11.67"/>
        <rect x="135.2778" y="115.8333" rx="0.00" ry="0.00" width="11.67" height="11.67"/>
        <rect x="148.2407" y="115.8333" rx="0.00" ry="0.00" width="11.67" height="11.67"/>
        <rect x="161.2037" y="115.8333" rx="0.00" ry="0.00" width="11.67" height="11.67"/>
        <rect x="174.1667" y="115.8333" rx="0.00" ry="0.00" width="11.67" height="11.67"/>
        <rect x="187.1296" y="115.8333" rx="0.00" ry="0.00" width="11.67" height="11.67"/>
        <rect x="200.0926" y="115.8333" rx="0.00" ry="0.00" width="11.67" height="11.67"/>
        <rect x="213.0556" y="115.8333" rx="0.00" ry="0.00" width="11.67" height="11.67"/>
        <rect x="226.0185" y="115.8333" rx="0.00" ry="0.00" width="11.67" height="11.67"/>
        <rect x="238.9815" y="115.8333" rx="0.00" ry="0.00" width="11.67" height="11.67"/>
        <rect x="251.9444" y="115.8333" rx="0.00" ry="0.00" width="11.67" height="11.67"/>
        <rect x="264.9074" y="115.8333" rx="0.00" ry="0.00" width="11.67" height="11.67"/>
        <rect x="18.6111" y="102.8704" rx="0.00" ry="0.00" width="11.67" height="11.67"/>
        <rect x="31.5741" y="102.8704" rx="0.00" ry="0.00" width="11.67" height="11.67"/>
        <rect x="44.5370" y="102.8704" rx="0.00" ry="0.00" width="11.67" height="11.67"/>
        <rect x="57.5000" y="102.8704" rx="0.00" ry="0.00" width="11.67" height="11.67"/>
        <rect x="70.4630" y="102.8704" rx="0.00" ry="0.00" width="11.67" height="11.67"/>
        <rect x="83.4259" y="102.8704" rx="0.00" ry="0.00" width="11.67" height="11.67"/>
        <rect x="96.3889" y="102.8704" rx="0.00" ry="0.00" width="11.67" height="11.67"/>
        <rect x="109.3519" y="102.8704" rx="0.00" ry="0.00" width="11.67" height="11.67"/>
        <rect x="122.3148" y="102.8704" rx="0.00" ry="0.00" width="11.67" height="11.67"/>
        <rect x="135.2778" y="102.8704" rx="0.00" ry="0.00" width="11.67" height="11.67"/>
        <rect x="148.2407" y="102.8704" rx="0.00" ry="0.00" width="11.67" height="11.67"/>
        <rect x="161.2037" y="102.8704" rx="0.00" ry="0.00" width="11.67" height="11.67"/>
        <rect x="174.1667" y="102.8704" rx="0.00" ry="0.00" width="11.67" height="11.67"/>
        <rect x="187.1296" y="102.8704" rx="0.00" ry="0.00" width="11.67" height="11.67"/>
        <rect x="200.0926" y="102.8704" rx="0.00" ry="0.00" width="11.67" height="11.67"/>
        <rect x="213.0556" y="102.8704" rx="0.00" ry="0.00" width="11.67" height="11.67"/>
        <rect x="226.0185" y="102.8704" rx="0.00" ry="0.00" width="11.67" height="11.67"/>
        <rect x="238.9815" y="102.8704" rx="0.00" ry="0.00" width="11.67" height="11.67"/>
        <rect x="251.9444" y="102.8704" rx="0.00" ry="0.00" width="11.67" height="11.67"/>
        <rect x="264.9074" y="102.8704" rx="0.00" ry="0.00" width="11.67" height="11.67"/>
        <rect x="18.6111" y="89.9074" rx="0.00" ry="0.00" width="11.67" height="11.67"/>
        <rect x="31.5741" y="89.9074" rx="0.00" ry="0.00" width="11.67" height="11.67"/>
        <rect x="44.5370" y="89.9074" rx="0.00" ry="0.00" width="11.67" height="11.67"/>
        <rect x="57.5000" y="89.9074" rx="0.00" ry="0.00" width="11.67" height="11.67"/>
        <rect x="70.4630" y="89.9074" rx="0.00" ry="0.00" width="11.67" height="11.67"/>
        <rect x="83.4259" y="89.9074" rx="0.00" ry="0.00" width="11.67" height="11.67"/>
        <rect x="96.3889" y="89.9074" rx="0.00" ry="0.00" width="11.67" height="11.67"/>
        <rect x="109.3519" y="89.9074" rx="0.00" ry="0.00" width="11.67" height="11.67"/>
        <rect x="122.3148" y="89.9074" rx="0.00" ry="0.00" width="11.67" height="11.67"/>
        <rect x="135.2778" y="89.9074" rx="0.00" ry="0.00" width="11.67" height="11.67"/>
        <rect x="148.2407" y="89.9074" rx="0.00" ry="0.00" width="11.67" height="11.67"/>
        <rect x="161.2037" y="89.9074" rx="0.00" ry="0.00" width="11.67" height="11.67"/>
        <rect x="174.1667" y="89.9074" rx="0.00" ry="0.00" width="11.67" height="11.67"/>
        <rect x="187.1296" y="89.9074" rx="0.00" ry="0.00" width="11.67" height="11.67"/>
        <rect x="200.0926" y="89.9074" rx="0.00" ry="0.00" width="11.67" height="11.67"/>
        <rect x="213.0556" y="89.9074" rx="0.00" ry="0.00" width="11.67" height="11.67"/>
        <rect x="226.0185" y="89.9074" rx="0.00" ry="0.00" width="11.67" height="11.67"/>
        <rect x="238.9815" y="89.9074" rx="0.00" ry="0.00" width="11.67" height="11.67"/>
        <rect x="251.9444" y="89.9074" rx="0.00" ry="0.00" width="11.67" height="11.67"/>
        <rect x="264.9074" y="89.9074" rx="0.00" ry="0.00" width="11.67" height="11.67"/>
        <rect x="18.6111" y="76.9444" rx="0.00" ry="0.00" width="11.67" height="11.67"/>
        <rect x="31.5741" y="76.9444" rx="0.00" ry="0.00" width="11.67" height="11.67"/>
        <rect x="44.5370" y="76.9444" rx="0.00" ry="0.00" width="11.67" height="11.67"/>
        <rect x="57.5000" y="76.9444" rx="0.00" ry="0.00" width="11.67" height="11.67"/>
        <rect x="70.4630" y="76.9444" rx="0.00" ry="0.00" width="11.67" height="11.67"/>
        <rect x="83.4259" y="76.9444" rx="0.00" ry="0.00" width="11.67" height="11.67"/>
        <rect x="96.3889" y="76.9444" rx="0.00" ry="0.00" width="11.67" height="11.67"/>
        <rect x="109.3519" y="76.9444" rx="0.00" ry="0.00" width="11.67" height="11.67"/>
        <rect x="122.3148" y="76.9444" rx="0.00" ry="0.00" width="11.67" height="11.67"/>
        <rect x="135.2778" y="76.9444" rx="0.00" ry="0.00" width="11.67" height="11.67"/>
        <rect x="148.2407" y="76.9444" rx="0.00" ry="0.00" width="11.67" height="11.67"/>
        <rect x="161.2037" y="76.9444" rx="0.00" ry="0.00" width="11.67" height="11.67"/>
        <rect x="174.1667" y="76.9444" rx="0.00" ry="0.00" width="11.67" height="11.67"/>
        <rect x="187.1296" y="76.9444" rx="0.00" ry="0.00" width="11.67" height="11.67"/>
        <rect x="200.0926" y="76.9444" rx="0.00" ry="0.00" width="11.67" height="11.67"/>
        <rect x="213.0556" y="76.9444" rx="0.00" ry="0.00" width="11.67" height="11.67"/>
        <rect x="226.0185" y="76.9444" rx="0.00" ry="0.00" width="11.67" height="11.67"/>
        <rect x="238.9815" y="76.9444" rx="0.00" ry="0.00" width="11.67" height="11.67"/>
        <rect x="251.9444" y="76.9444" rx="0.00" ry="0.00" width="11.67" height="11.67"/>
        <rect x="264.9074" y="76.9444" rx="0.00" ry="0.00" width="11.67" height="11.67"/>
        <rect x="18.6111" y="63.9815" rx="0.00" ry="0.00" width="11.67" height="11.67"/>
        <rect x="31.5741" y="63.9815" rx="0.00" ry="0.00" width="11.67" height="11.67"/>
        <rect x="44.5370" y="63.9815" rx="0.00" ry="0.00" width="11.67" height="11.67"/>
        <rect x="57.5000" y="63.9815" rx="0.00" ry="0.00" width="11.67" height="11.67"/>
        <rect x="70.4630" y="63.9815" rx="0.00" ry="0.00" width="11.67" height="11.67"/>
        <rect x="83.4259" y="63.9815" rx="0.00" ry="0.00" width="11.67" height="11.67"/>
        <rect x="96.3889" y="63.9815" rx="0.00" ry="0.00" width="11.67" height="11.67"/>
        <rect x="109.3519" y="63.9815" rx="0.00" ry="0.00" width="11.67" height="11.67"/>
        <rect x="122.3148" y="63.9815" rx="0.00" ry="0.00" width="11.67" height="11.67"/>
        <rect x="135.2778" y="63.9815" rx="0.00" ry="0.00" width="11.67" height="11.67"/>
        <rect x="148.2407" y="63.9815" rx="0.00" ry="0.00" width="11.67" height="11.67"/>
        <rect x="161.2037" y="63.9815" rx="0.00" ry="0.00" width="11.67" height="11.67"/>
        <rect x="174.1667" y="63.9815" rx="0.00" ry="0.00" width="11.67" height="11.67"/>
        <rect x="187.1296" y="63.9815" rx="0.00" ry="0.00" width="11.67" height="11.67"/>
      </g>
      <g style="fill:#FF901A" id="Party 2">
        <rect x="200.0926" y="63.9815" rx="0.00" ry="0.00" width="11.67" height="11.67"/>
        <rect x="213.0556" y="63.9815" rx="0.00" ry="0.00" width="11.67" height="11.67"/>
        <rect x="226.0185" y="63.9815" rx="0.00" ry="0.00" width="11.67" height="11.67"/>
        <rect x="238.9815" y="63.9815" rx="0.00" ry="0.00" width="11.67" height="11.67"/>
        <rect x="251.9444" y="63.9815" rx="0.00" ry="0.00" width="11.67" height="11.67"/>
      </g>
    </g>
    <g id="rightbench">
      <g style="fill:#4768E2" id="Party 5">
        <rect x="18.6111" y="167.6852" rx="0.00" ry="0.00" width="11.67" height="11.67"/>
        <rect x="31.5741" y="167.6852" rx="0.00" ry="0.00" width="11.67" height="11.67"/>
        <rect x="44.5370" y="167.6852" rx="0.00" ry="0.00" width="11.67" height="11.67"/>
        <rect x="57.5000" y="167.6852" rx="0.00" ry="0.00" width="11.67" height="11.67"/>
        <rect x="70.4630" y="167.6852" rx="0.00" ry="0.00" width="11.67" height="11.67"/>
      </g>
      <g style="fill:#D1D1D1" id="Party 6">
        <rect x="83.4259" y="167.6852" rx="0.00" ry="0.00" width="11.67" height="11.67"/>
        <rect x="96.3889" y="167.6852" rx="0.00" ry="0.00" width="11.67" height="11.67"/>
        <rect x="109.3519" y="167.6852" rx="0.00" ry="0.00" width="11.67" height="11.67"/>
        <rect x="122.3148" y="167.6852" rx="0.00" ry="0.00" width="11.67" height="11.67"/>
        <rect x="135.2778" y="167.6852" rx="0.00" ry="0.00" width="11.67" height="11.67"/>
        <rect x="148.2407" y="167.6852" rx="0.00" ry="0.00" width="11.67" height="11.67"/>
        <rect x="161.2037" y="167.6852" rx="0.00" ry="0.00" width="11.67" height="11.67"/>
        <rect x="174.1667" y="167.6852" rx="0.00" ry="0.00" width="11.67" height="11.67"/>
        <rect x="187.1296" y="167.6852" rx="0.00" ry="0.00" width="11.67" height="11.67"/>
        <rect x="200.0926" y="167.6852" rx="0.00" ry="0.00" width="11.67" height="11.67"/>
        <rect x="213.0556" y="167.6852" rx="0.00" ry="0.00" width="11.67" height="11.67"/>
        <rect x="226.0185" y="167.6852" rx="0.00" ry="0.00" width="11.67" height="11.67"/>
        <rect x="238.9815" y="167.6852" rx="0.00" ry="0.00" width="11.67" height="11.67"/>
        <rect x="251.9444" y="167.6852" rx="0.00" ry="0.00" width="11.67" height="11.67"/>
        <rect x="264.9074" y="167.6852" rx="0.00" ry="0.00" width="11.67" height="11.67"/>
      </g>
      <g style="fill:#EEEEEE" id="Party 7">
        <rect x="18.6111" y="180.6481" rx="0.00" ry="0.00" width="11.67" height="11.67"/>
        <rect x="31.5741" y="180.6481" rx="0.00" ry="0.00" width="11.67" height="11.67"/>
        <rect x="44.5370" y="180.6481" rx="0.00" ry="0.00" width="11.67" height="11.67"/>
        <rect x="57.5000" y="180.6481" rx="0.00" ry="0.00" width="11.67" height="11.67"/>
        <rect x="70.4630" y="180.6481" rx="0.00" ry="0.00" width="11.67" height="11.67"/>
        <rect x="83.4259" y="180.6481" rx="0.00" ry="0.00" width="11.67" height="11.67"/>
        <rect x="96.3889" y="180.6481" rx="0.00" ry="0.00" width="11.67" height="11.67"/>
        <rect x="109.3519" y="180.6481" rx="0.00" ry="0.00" width="11.67" height="11.67"/>
        <rect x="122.3148" y="180.6481" rx="0.00" ry="0.00" width="11.67" height="11.67"/>
        <rect x="135.2778" y="180.6481" rx="0.00" ry="0.00" width="11.67" height="11.67"/>
      </g>
    </g>
    <g id="centerbench">
      <g style="fill:#B1FC27" id="Party 3">
        <rect x="289.5370" y="5.6481" rx="0.00" ry="0.00" width="11.67" height="11.67"/>
        <rect x="302.5000" y="5.6481" rx="0.00" ry="0.00" width="11.67" height="11.67"/>
        <rect x="315.4630" y="5.6481" rx="0.00" ry="0.00" width="11.67" height="11.67"/>
        <rect x="328.4259" y="5.6481" rx="0.00" ry="0.00" width="11.67" height="11.67"/>
        <rect x="341.3889" y="5.6481" rx="0.00" ry="0.00" width="11.67" height="11.67"/>
        <rect x="289.5370" y="18.6111" rx="0.00" ry="0.00" width="11.67" height="11.67"/>
        <rect x="302.5000" y="18.6111" rx="0.00" ry="0.00" width="11.67" height="11.67"/>
        <rect x="315.4630" y="18.6111" rx="0.00" ry="0.00" width="11.67" height="11.67"/>
        <rect x="328.4259" y="18.6111" rx="0.00" ry="0.00" width="11.67" height="11.67"/>
        <rect x="341.3889" y="18.6111" rx="0.00" ry="0.00" width="11.67" height="11.67"/>
        <rect x="289.5370" y="31.5741" rx="0.00" ry="0.00" width="11.67" height="11.67"/>
        <rect x="302.5000" y="31.5741" rx="0.00" ry="0.00" width="11.67" height="11.67"/>
        <rect x="315.4630" y="31.5741" rx="0.00" ry="0.00" width="11.67" height="11.67"/>
        <rect x="328.4259" y="31.5741" rx="0.00" ry="0.00" width="11.67" height="11.67"/>
        <rect x="341.3889" y="31.5741" rx="0.00" ry="0.00" width="11.67" height="11.67"/>
        <rect x="289.5370" y="44.5370" rx="0.00" ry="0.00" width="11.67" height="11.67"/>
        <rect x="302.5000" y="44.5370" rx="0.00" ry="0.00" width="11.67" height="11.67"/>
        <rect x="315.4630" y="44.5370" rx="0.00" ry="0.00" width="11.67" height="11.67"/>
        <rect x="328.4259" y="44.5370" rx="0.00" ry="0.00" width="11.67" height="11.67"/>
        <rect x="341.3889" y="44.5370" rx="0.00" ry="0.00" width="11.67" height="11.67"/>
        <rect x="289.5370" y="57.5000" rx="0.00" ry="0.00" width="11.67" height="11.67"/>
        <rect x="302.5000" y="57.5000" rx="0.00" ry="0.00" width="11.67" height="11.67"/>
        <rect x="315.4630" y="57.5000" rx="0.00" ry="0.00" width="11.67" height="11.67"/>
        <rect x="328.4259" y="57.5000" rx="0.00" ry="0.00" width="11.67" height="11.67"/>
        <rect x="341.3889" y="57.5000" rx="0.00" ry="0.00" width="11.67" height="11.67"/>
        <rect x="289.5370" y="70.4630" rx="0.00" ry="0.00" width="11.67" height="11.67"/>
        <rect x="302.5000" y="70.4630" rx="0.00" ry="0.00" width="11.67" height="11.67"/>
        <rect x="315.4630" y="70.4630" rx="0.00" ry="0.00" width="11.67" height="11.67"/>
        <rect x="328.4259" y="70.4630" rx="0.00" ry="0.00" width="11.67" height="11.67"/>
        <rect x="341.3889" y="70.4630" rx="0.00" ry="0.00" width="11.67" height="11.67"/>
        <rect x="289.5370" y="83.4259" rx="0.00" ry="0.00" width="11.67" height="11.67"/>
        <rect x="302.5000" y="83.4259" rx="0.00" ry="0.00" width="11.67" height="11.67"/>
        <rect x="315.4630" y="83.4259" rx="0.00" ry="0.00" width="11.67" height="11.67"/>
        <rect x="328.4259" y="83.4259" rx="0.00" ry="0.00" width="11.67" height="11.67"/>
        <rect x="341.3889" y="83.4259" rx="0.00" ry="0.00" width="11.67" height="11.67"/>
        <rect x="289.5370" y="96.3889" rx="0.00" ry="0.00" width="11.67" height="11.67"/>
        <rect x="302.5000" y="96.3889" rx="0.00" ry="0.00" width="11.67" height="11.67"/>
        <rect x="315.4630" y="96.3889" rx="0.00" ry="0.00" width="11.67" height="11.67"/>
        <rect x="328.4259" y="96.3889" rx="0.00" ry="0.00" width="11.67" height="11.67"/>
        <rect x="341.3889" y="96.3889" rx="0.00" ry="0.00" width="11.67" height="11.67"/>
        <rect x="289.5370" y="109.3519" rx="0.00" ry="0.00" width="11.67" height="11.67"/>
        <rect x="302.5000" y="109.3519" rx="0.00" ry="0.00" width="11.67" height="11.67"/>
        <rect x="315.4630" y="109.3519" rx="0.00" ry="0.00" width="11.67" height="11.67"/>
        <rect x="328.4259" y="109.3519" rx="0.00" ry="0.00" width="11.67" height="11.67"/>
        <rect x="341.3889" y="109.3519" rx="0.00" ry="0.00" width="11.67" height="11.67"/>
        <rect x="289.5370" y="122.3148" rx="0.00" ry="0.00" width="11.67" height="11.67"/>
        <rect x="302.5000" y="122.3148" rx="0.00" ry="0.00" width="11.67" height="11.67"/>
        <rect x="315.4630" y="122.3148" rx="0.00" ry="0.00" width="11.67" height="11.67"/>
      </g>
      <g style="fill:#123EDA" id="Party 4">
        <rect x="328.4259" y="122.3148" rx="0.00" ry="0.00" width="11.67" height="11.67"/>
        <rect x="341.3889" y="122.3148" rx="0.00" ry="0.00" width="11.67" height="11.67"/>
        <rect x="289.5370" y="135.2778" rx="0.00" ry="0.00" width="11.67" height="11.67"/>
        <rect x="302.5000" y="135.2778" rx="0.00" ry="0.00" width="11.67" height="11.67"/>
        <rect x="315.4630" y="135.2778" rx="0.00" ry="0.00" width="11.67" height="11.67"/>
        <rect x="328.4259" y="135.2778" rx="0.00" ry="0.00" width="11.67" height="11.67"/>
        <rect x="341.3889" y="135.2778" rx="0.00" ry="0.00" width="11.67" height="11.67"/>
        <rect x="289.5370" y="148.2407" rx="0.00" ry="0.00" width="11.67" height="11.67"/>
        <rect x="302.5000" y="148.2407" rx="0.00" ry="0.00" width="11.67" height="11.67"/>
        <rect x="315.4630" y="148.2407" rx="0.00" ry="0.00" width="11.67" height="11.67"/>
        <rect x="328.4259" y="148.2407" rx="0.00" ry="0.00" width="11.67" height="11.67"/>
        <rect x="341.3889" y="148.2407" rx="0.00" ry="0.00" width="11.67" height="11.67"/>
        <rect x="289.5370" y="161.2037" rx="0.00" ry="0.00" width="11.67" height="11.67"/>
        <rect x="302.5000" y="161.2037" rx="0.00" ry="0.00" width="11.67" height="11.67"/>
        <rect x="315.4630" y="161.2037" rx="0.00" ry="0.00" width="11.67" height="11.67"/>
        <rect x="328.4259" y="161.2037" rx="0.00" ry="0.00" width="11.67" height="11.67"/>
        <rect x="341.3889" y="161.2037" rx="0.00" ry="0.00" width="11.67" height="11.67"/>
        <rect x="289.5370" y="174.1667" rx="0.00" ry="0.00" width="11.67" height="11.67"/>
        <rect x="302.5000" y="174.1667" rx="0.00" ry="0.00" width="11.67" height="11.67"/>
        <rect x="315.4630" y="174.1667" rx="0.00" ry="0.00" width="11.67" height="11.67"/>
        <rect x="328.4259" y="174.1667" rx="0.00" ry="0.00" width="11.67" height="11.67"/>
        <rect x="341.3889" y="174.1667" rx="0.00" ry="0.00" width="11.67" height="11.67"/>
        <rect x="289.5370" y="187.1296" rx="0.00" ry="0.00" width="11.67" height="11.67"/>
        <rect x="302.5000" y="187.1296" rx="0.00" ry="0.00" width="11.67" height="11.67"/>
        <rect x="315.4630" y="187.1296" rx="0.00" ry="0.00" width="11.67" height="11.67"/>
        <rect x="328.4259" y="187.1296" rx="0.00" ry="0.00" width="11.67" height="11.67"/>
        <rect x="341.3889" y="187.1296" rx="0.00" ry="0.00" width="11.67" height="11.67"/>
        <rect x="289.5370" y="200.0926" rx="0.00" ry="0.00" width="11.67" height="11.67"/>
        <rect x="302.5000" y="200.0926" rx="0.00" ry="0.00" width="11.67" height="11.67"/>
        <rect x="315.4630" y="200.0926" rx="0.00" ry="0.00" width="11.67" height="11.67"/>
        <rect x="328.4259" y="200.0926" rx="0.00" ry="0.00" width="11.67" height="11.67"/>
        <rect x="341.3889" y="200.0926" rx="0.00" ry="0.00" width="11.67" height="11.67"/>
        <rect x="289.5370" y="213.0556" rx="0.00" ry="0.00" width="11.67" height="11.67"/>
        <rect x="302.5000" y="213.0556" rx="0.00" ry="0.00" width="11.67" height="11.67"/>
        <rect x="315.4630" y="213.0556" rx="0.00" ry="0.00" width="11.67" height="11.67"/>
        <rect x="328.4259" y="213.0556" rx="0.00" ry="0.00" width="11.67" height="11.67"/>
        <rect x="341.3889" y="213.0556" rx="0.00" ry="0.00" width="11.67" height="11.67"/>
        <rect x="289.5370" y="226.0185" rx="0.00" ry="0.00" width="11.67" height="11.67"/>
        <rect x="302.5000" y="226.0185" rx="0.00" ry="0.00" width="11.67" height="11.67"/>
        <rect x="315.4630" y="226.0185" rx="0.00" ry="0.00" width="11.67" height="11.67"/>
        <rect x="328.4259" y="226.0185" rx="0.00" ry="0.00" width="11.67" height="11.67"/>
        <rect x="341.3889" y="226.0185" rx="0.00" ry="0.00" width="11.67" height="11.67"/>
        <rect x="289.5370" y="238.9815" rx="0.00" ry="0.00" width="11.67" height="11.67"/>
        <rect x="302.5000" y="238.9815" rx="0.00" ry="0.00" width="11.67" height="11.67"/>
        <rect x="315.4630" y="238.9815" rx="0.00" ry="0.00" width="11.67" height="11.67"/>
        <rect x="328.4259" y="238.9815" rx="0.00" ry="0.00" width="11.67" height="11.67"/>
        <rect x="341.3889" y="238.9815" rx="0.00" ry="0.00" width="11.67" height="11.67"/>
      </g>
    </g>
  </g>
</svg>
