<?xml version="1.0" encoding="UTF-8" standalone="no"?>
<svg xmlns:svg="http://www.w3.org/2000/svg"
     xmlns="http://www.w3.org/2000/svg" version="1.1"
     width="360.0" height="185.0">
    <!-- Created with parliamentarch (https://github.com/Gouvernathor/parliamentarch/) -->
    <text x="180.0" y="175.0"
          style="font-size:36px;font-weight:bold;text-align:center;text-anchor:middle;font-family:sans-serif">250</text>
    <g style="fill:#b91717"
       id="0---------">
        <title>КП СФСРЮ</title>
        <circle cx="10.93" cy="174.17" r="4.67"/>
        <circle cx="22.61" cy="174.17" r="4.67"/>
        <circle cx="34.28" cy="174.17" r="4.67"/>
        <circle cx="45.96" cy="174.17" r="4.67"/>
        <circle cx="57.64" cy="174.17" r="4.67"/>
        <circle cx="69.32" cy="174.17" r="4.67"/>
        <circle cx="81.01" cy="174.17" r="4.67"/>
        <circle cx="92.69" cy="174.17" r="4.67"/>
        <circle cx="11.88" cy="161.21" r="4.67"/>
        <circle cx="23.59" cy="161.49" r="4.67"/>
        <circle cx="35.35" cy="161.46" r="4.67"/>
        <circle cx="47.13" cy="161.42" r="4.67"/>
        <circle cx="59.00" cy="160.91" r="4.67"/>
        <circle cx="70.75" cy="161.31" r="4.67"/>
        <circle cx="13.82" cy="148.36" r="4.67"/>
        <circle cx="82.62" cy="161.24" r="4.67"/>
        <circle cx="25.59" cy="148.94" r="4.67"/>
        <circle cx="37.52" cy="148.89" r="4.67"/>
        <circle cx="94.55" cy="161.15" r="4.67"/>
        <circle cx="49.50" cy="148.84" r="4.67"/>
        <circle cx="16.74" cy="135.70" r="4.67"/>
        <circle cx="61.78" cy="147.89" r="4.67"/>
        <circle cx="28.60" cy="136.59" r="4.67"/>
        <circle cx="73.68" cy="148.71" r="4.67"/>
        <circle cx="40.79" cy="136.56" r="4.67"/>
        <circle cx="85.92" cy="148.64" r="4.67"/>
        <circle cx="53.07" cy="136.54" r="4.67"/>
        <circle cx="20.62" cy="123.31" r="4.67"/>
        <circle cx="32.59" cy="124.53" r="4.67"/>
        <circle cx="98.34" cy="148.56" r="4.67"/>
        <circle cx="65.97" cy="135.24" r="4.67"/>
        <circle cx="45.11" cy="124.57" r="4.67"/>
        <circle cx="78.05" cy="136.53" r="4.67"/>
        <circle cx="25.44" cy="111.24" r="4.67"/>
        <circle cx="57.79" cy="124.64" r="4.67"/>
        <circle cx="37.55" cy="112.82" r="4.67"/>
        <circle cx="90.85" cy="136.57" r="4.67"/>
        <circle cx="50.47" cy="113.00" r="4.67"/>
        <circle cx="71.50" cy="123.13" r="4.67"/>
        <circle cx="31.17" cy="99.58" r="4.67"/>
        <circle cx="103.98" cy="136.68" r="4.67"/>
        <circle cx="83.80" cy="124.95" r="4.67"/>
        <circle cx="63.62" cy="113.25" r="4.67"/>
        <circle cx="43.43" cy="101.55" r="4.67"/>
        <circle cx="56.82" cy="101.94" r="4.67"/>
        <circle cx="37.78" cy="88.40" r="4.67"/>
        <circle cx="97.31" cy="125.26" r="4.67"/>
        <circle cx="78.32" cy="111.68" r="4.67"/>
        <circle cx="50.20" cy="90.79" r="4.67"/>
        <circle cx="70.51" cy="102.46" r="4.67"/>
        <circle cx="90.87" cy="114.12" r="4.67"/>
        <circle cx="45.23" cy="77.76" r="4.67"/>
        <circle cx="64.11" cy="91.47" r="4.67"/>
        <circle cx="111.33" cy="125.78" r="4.67"/>
        <circle cx="57.81" cy="80.62" r="4.67"/>
        <circle cx="86.34" cy="101.04" r="4.67"/>
        <circle cx="78.40" cy="92.37" r="4.67"/>
        <circle cx="105.20" cy="114.89" r="4.67"/>
        <circle cx="53.47" cy="67.71" r="4.67"/>
        <circle cx="72.29" cy="81.69" r="4.67"/>
        <circle cx="99.16" cy="104.18" r="4.67"/>
        <circle cx="66.23" cy="71.09" r="4.67"/>
        <circle cx="62.46" cy="58.34" r="4.67"/>
        <circle cx="87.22" cy="83.09" r="4.67"/>
        <circle cx="95.47" cy="91.34" r="4.67"/>
        <circle cx="120.23" cy="116.10" r="4.67"/>
        <circle cx="81.29" cy="72.65" r="4.67"/>
        <circle cx="75.38" cy="62.27" r="4.67"/>
        <circle cx="114.38" cy="105.65" r="4.67"/>
        <circle cx="108.54" cy="95.28" r="4.67"/>
        <circle cx="72.14" cy="49.68" r="4.67"/>
        <circle cx="96.87" cy="74.69" r="4.67"/>
        <circle cx="91.04" cy="64.44" r="4.67"/>
        <circle cx="105.59" cy="82.69" r="4.67"/>
        <circle cx="85.21" cy="54.22" r="4.67"/>
        <circle cx="82.46" cy="41.78" r="4.67"/>
        <circle cx="130.48" cy="107.86" r="4.67"/>
        <circle cx="124.69" cy="97.69" r="4.67"/>
        <circle cx="118.90" cy="87.53" r="4.67"/>
        <circle cx="107.29" cy="67.24" r="4.67"/>
        <circle cx="101.48" cy="57.11" r="4.67"/>
        <circle cx="95.66" cy="46.98" r="4.67"/>
        <circle cx="116.60" cy="75.18" r="4.67"/>
        <circle cx="93.36" cy="34.71" r="4.67"/>
        <circle cx="106.66" cy="40.62" r="4.67"/>
        <circle cx="112.51" cy="50.72" r="4.67"/>
        <circle cx="118.37" cy="60.83" r="4.67"/>
        <circle cx="130.09" cy="81.04" r="4.67"/>
        <circle cx="104.76" cy="28.48" r="4.67"/>
        <circle cx="135.96" cy="91.15" r="4.67"/>
        <circle cx="141.84" cy="101.26" r="4.67"/>
        <circle cx="128.36" cy="68.92" r="4.67"/>
        <circle cx="118.14" cy="35.16" r="4.67"/>
        <circle cx="124.07" cy="45.32" r="4.67"/>
        <circle cx="116.61" cy="23.16" r="4.67"/>
        <circle cx="130.01" cy="55.50" r="4.67"/>
        <circle cx="141.96" cy="75.90" r="4.67"/>
        <circle cx="147.99" cy="86.14" r="4.67"/>
        <circle cx="140.72" cy="63.97" r="4.67"/>
        <circle cx="130.02" cy="30.64" r="4.67"/>
        <circle cx="128.84" cy="18.76" r="4.67"/>
        <circle cx="136.05" cy="40.95" r="4.67"/>
        <circle cx="154.07" cy="96.43" r="4.67"/>
        <circle cx="142.10" cy="51.30" r="4.67"/>
        <circle cx="142.23" cy="27.10" r="4.67"/>
        <circle cx="154.35" cy="72.18" r="4.67"/>
        <circle cx="141.36" cy="15.31" r="4.67"/>
        <circle cx="148.36" cy="37.64" r="4.67"/>
        <circle cx="153.55" cy="60.39" r="4.67"/>
        <circle cx="160.57" cy="82.76" r="4.67"/>
        <circle cx="154.54" cy="48.27" r="4.67"/>
        <circle cx="154.68" cy="24.55" r="4.67"/>
        <circle cx="154.11" cy="12.83" r="4.67"/>
        <circle cx="166.89" cy="93.49" r="4.67"/>
        <circle cx="160.92" cy="35.42" r="4.67"/>
    </g>
    <g style="fill:#ff901a"
       id="1---------------">
        <title>Партия Поповой</title>
        <circle cx="167.09" cy="69.92" r="4.67"/>
        <circle cx="166.70" cy="58.22" r="4.67"/>
        <circle cx="167.21" cy="46.44" r="4.67"/>
        <circle cx="167.30" cy="23.01" r="4.67"/>
        <circle cx="167.02" cy="11.33" r="4.67"/>
    </g>
    <g style="fill:#b1fc27"
       id="2------">
        <title>Груша</title>
        <circle cx="173.49" cy="81.05" r="4.67"/>
        <circle cx="173.62" cy="34.31" r="4.67"/>
        <circle cx="180.00" cy="92.50" r="4.67"/>
        <circle cx="180.00" cy="69.17" r="4.67"/>
        <circle cx="180.00" cy="57.50" r="4.67"/>
        <circle cx="180.00" cy="45.83" r="4.67"/>
        <circle cx="180.00" cy="22.50" r="4.67"/>
        <circle cx="180.00" cy="10.83" r="4.67"/>
        <circle cx="186.38" cy="34.31" r="4.67"/>
        <circle cx="186.51" cy="81.05" r="4.67"/>
        <circle cx="192.98" cy="11.33" r="4.67"/>
        <circle cx="192.70" cy="23.01" r="4.67"/>
        <circle cx="192.79" cy="46.44" r="4.67"/>
        <circle cx="193.30" cy="58.22" r="4.67"/>
        <circle cx="192.91" cy="69.92" r="4.67"/>
        <circle cx="199.08" cy="35.42" r="4.67"/>
        <circle cx="193.11" cy="93.49" r="4.67"/>
        <circle cx="205.89" cy="12.83" r="4.67"/>
        <circle cx="205.32" cy="24.55" r="4.67"/>
        <circle cx="205.46" cy="48.27" r="4.67"/>
        <circle cx="199.43" cy="82.76" r="4.67"/>
        <circle cx="206.45" cy="60.39" r="4.67"/>
        <circle cx="211.64" cy="37.64" r="4.67"/>
        <circle cx="218.64" cy="15.31" r="4.67"/>
        <circle cx="205.65" cy="72.18" r="4.67"/>
        <circle cx="217.77" cy="27.10" r="4.67"/>
        <circle cx="217.90" cy="51.30" r="4.67"/>
        <circle cx="205.93" cy="96.43" r="4.67"/>
        <circle cx="223.95" cy="40.95" r="4.67"/>
        <circle cx="231.16" cy="18.76" r="4.67"/>
        <circle cx="229.98" cy="30.64" r="4.67"/>
        <circle cx="219.28" cy="63.97" r="4.67"/>
        <circle cx="212.01" cy="86.14" r="4.67"/>
        <circle cx="218.04" cy="75.90" r="4.67"/>
        <circle cx="229.99" cy="55.50" r="4.67"/>
        <circle cx="243.39" cy="23.16" r="4.67"/>
        <circle cx="235.93" cy="45.32" r="4.67"/>
        <circle cx="241.86" cy="35.16" r="4.67"/>
        <circle cx="231.64" cy="68.92" r="4.67"/>
        <circle cx="218.16" cy="101.26" r="4.67"/>
        <circle cx="224.04" cy="91.15" r="4.67"/>
        <circle cx="255.24" cy="28.48" r="4.67"/>
        <circle cx="229.91" cy="81.04" r="4.67"/>
        <circle cx="241.63" cy="60.83" r="4.67"/>
        <circle cx="247.49" cy="50.72" r="4.67"/>
        <circle cx="253.34" cy="40.62" r="4.67"/>
        <circle cx="266.64" cy="34.71" r="4.67"/>
        <circle cx="243.40" cy="75.18" r="4.67"/>
    </g>
    <g style="fill:#123eda"
       id="3----------------">
        <title>Единая Юльсанна</title>
        <circle cx="264.34" cy="46.98" r="4.67"/>
        <circle cx="258.52" cy="57.11" r="4.67"/>
        <circle cx="252.71" cy="67.24" r="4.67"/>
        <circle cx="241.10" cy="87.53" r="4.67"/>
        <circle cx="235.31" cy="97.69" r="4.67"/>
        <circle cx="229.52" cy="107.86" r="4.67"/>
        <circle cx="277.54" cy="41.78" r="4.67"/>
        <circle cx="274.79" cy="54.22" r="4.67"/>
        <circle cx="254.41" cy="82.69" r="4.67"/>
        <circle cx="268.96" cy="64.44" r="4.67"/>
        <circle cx="263.13" cy="74.69" r="4.67"/>
        <circle cx="287.86" cy="49.68" r="4.67"/>
        <circle cx="251.46" cy="95.28" r="4.67"/>
        <circle cx="245.62" cy="105.65" r="4.67"/>
        <circle cx="284.62" cy="62.27" r="4.67"/>
        <circle cx="278.71" cy="72.65" r="4.67"/>
        <circle cx="239.77" cy="116.10" r="4.67"/>
        <circle cx="264.53" cy="91.34" r="4.67"/>
        <circle cx="272.78" cy="83.09" r="4.67"/>
        <circle cx="297.54" cy="58.34" r="4.67"/>
        <circle cx="293.77" cy="71.09" r="4.67"/>
        <circle cx="260.84" cy="104.18" r="4.67"/>
        <circle cx="287.71" cy="81.69" r="4.67"/>
        <circle cx="306.53" cy="67.71" r="4.67"/>
        <circle cx="254.80" cy="114.89" r="4.67"/>
        <circle cx="281.60" cy="92.37" r="4.67"/>
        <circle cx="273.66" cy="101.04" r="4.67"/>
        <circle cx="302.19" cy="80.62" r="4.67"/>
        <circle cx="248.67" cy="125.78" r="4.67"/>
        <circle cx="295.89" cy="91.47" r="4.67"/>
        <circle cx="314.77" cy="77.76" r="4.67"/>
        <circle cx="269.13" cy="114.12" r="4.67"/>
        <circle cx="289.49" cy="102.46" r="4.67"/>
        <circle cx="309.80" cy="90.79" r="4.67"/>
        <circle cx="281.68" cy="111.68" r="4.67"/>
        <circle cx="262.69" cy="125.26" r="4.67"/>
        <circle cx="322.22" cy="88.40" r="4.67"/>
        <circle cx="303.18" cy="101.94" r="4.67"/>
        <circle cx="316.57" cy="101.55" r="4.67"/>
        <circle cx="296.38" cy="113.25" r="4.67"/>
        <circle cx="276.20" cy="124.95" r="4.67"/>
        <circle cx="256.02" cy="136.68" r="4.67"/>
        <circle cx="328.83" cy="99.58" r="4.67"/>
        <circle cx="288.50" cy="123.13" r="4.67"/>
        <circle cx="309.53" cy="113.00" r="4.67"/>
        <circle cx="269.15" cy="136.57" r="4.67"/>
        <circle cx="322.45" cy="112.82" r="4.67"/>
    </g>
    <g style="fill:#458be2"
       id="4----------">
        <title>ЛДП СФСРЮ</title>
        <circle cx="302.21" cy="124.64" r="4.67"/>
        <circle cx="334.56" cy="111.24" r="4.67"/>
        <circle cx="281.95" cy="136.53" r="4.67"/>
        <circle cx="314.89" cy="124.57" r="4.67"/>
        <circle cx="294.03" cy="135.24" r="4.67"/>
        <circle cx="261.66" cy="148.56" r="4.67"/>
        <circle cx="327.41" cy="124.53" r="4.67"/>
        <circle cx="339.38" cy="123.31" r="4.67"/>
        <circle cx="306.93" cy="136.54" r="4.67"/>
        <circle cx="274.08" cy="148.64" r="4.67"/>
    </g>
    <g style="fill:#d1d1d1"
       id="5-------------">
        <title>Беспартийные</title>
        <circle cx="319.21" cy="136.56" r="4.67"/>
        <circle cx="286.32" cy="148.71" r="4.67"/>
        <circle cx="331.40" cy="136.59" r="4.67"/>
        <circle cx="298.22" cy="147.89" r="4.67"/>
        <circle cx="343.26" cy="135.70" r="4.67"/>
        <circle cx="310.50" cy="148.84" r="4.67"/>
        <circle cx="265.45" cy="161.15" r="4.67"/>
        <circle cx="322.48" cy="148.89" r="4.67"/>
        <circle cx="334.41" cy="148.94" r="4.67"/>
        <circle cx="277.38" cy="161.24" r="4.67"/>
        <circle cx="346.18" cy="148.36" r="4.67"/>
        <circle cx="289.25" cy="161.31" r="4.67"/>
        <circle cx="301.00" cy="160.91" r="4.67"/>
        <circle cx="312.87" cy="161.42" r="4.67"/>
        <circle cx="324.65" cy="161.46" r="4.67"/>
    </g>
    <g style="fill:#ffffff; stroke-width:1.40; stroke:#000000"
       id="6----------------">
        <title>Вакантные места</title>
        <circle cx="336.41" cy="161.49" r="3.97"/>
        <circle cx="348.12" cy="161.21" r="3.97"/>
        <circle cx="267.31" cy="174.17" r="3.97"/>
        <circle cx="278.99" cy="174.17" r="3.97"/>
        <circle cx="290.68" cy="174.17" r="3.97"/>
        <circle cx="302.36" cy="174.17" r="3.97"/>
        <circle cx="314.04" cy="174.17" r="3.97"/>
        <circle cx="325.72" cy="174.17" r="3.97"/>
        <circle cx="337.39" cy="174.17" r="3.97"/>
        <circle cx="349.07" cy="174.17" r="3.97"/>
    </g>
</svg>

